<svg width="100" height="100" viewBox="0 0 100 100" fill="none" xmlns="http://www.w3.org/2000/svg">
<g clip-path="url(#clip0_20_5)">
<rect width="100" height="100" fill="#ED0F35"/>
<path d="M121.434 19.4652C101.689 3.30058 107.565 -72.6043 79.3684 -62.3288L-157.944 -25.4059L-15.0211 26.8379C-21.7104 29.2449 -27.448 32.424 -31.867 36.1717C-36.2861 39.9194 -39.2895 44.1534 -40.685 48.6028C-43.0485 56.0978 -40.972 63.8296 -34.7845 70.5731C-39.0239 74.2508 -41.9154 78.3822 -43.2841 82.7175C-44.6934 87.2568 -44.5045 91.9114 -42.7284 96.4085C-40.9524 100.906 -37.6249 105.155 -32.941 108.907C-13.1928 125.073 25.8023 129.863 53.9931 119.587L103.512 101.534C110.201 99.127 115.938 95.9482 120.357 92.2007C124.776 88.4531 127.78 84.2194 129.176 79.7701C131.537 72.2752 129.463 64.5438 123.281 57.7988C127.518 54.1211 130.407 49.9901 131.775 45.6555C133.186 41.1162 132.999 36.4614 131.223 31.9641C129.447 27.4669 126.119 23.2167 121.434 19.4652Z" fill="#ED0F35"/>
<rect x="50.4673" y="-15.625" width="58.8785" height="65.625" fill="#EB627A"/>
</g>
<defs>
<clipPath id="clip0_20_5">
<rect width="100" height="100" fill="white"/>
</clipPath>
</defs>
</svg>
